/* XPM */
static char *dummy[]={
"32 32 20 1",
"e c #000000",
"b c #1e3c09",
"j c #325d14",
"l c #392b1c",
"# c #3d253b",
"d c #487e23",
". c #523b40",
"m c #5d4934",
"c c #609f36",
"n c #846b52",
"k c #937c65",
"q c #ab4818",
"f c #ae8021",
"p c #b7a089",
"r c #d25f27",
"i c #dba637",
"o c #decbb7",
"h c #fcc552",
"g c #ffe8b9",
"a c #ffffff",
"...###########################..",
"...###########################..",
"..################...##########.",
"############aaaaaaa...##########",
"###########abbbbbbba..##########",
"######...#abcccccccba.##########",
"#####....abcdddddddcba##########",
"####.....abdddddddddba##########",
"####.....abddddddaedba##########",
"####....afffffdddeedba##########",
"#####..afgghhhfddccdba#####..###",
"######afiiiiiifdddddba####...###",
"#######affffffjddddjba####..####",
"########aaabjjddddjba#aaa#######",
"###########abaaaaaba#akkka######",
"###########almmmmmlaakaaaka#####",
"###########almnnnnnkkaoooaka####",
"######....almnnnnaaoookkooka####",
"#####.....alnnnnaoooooookoka####",
".####.....alnnnnooooooonloka###.",
".####.....almnnnnooooonnlpka###.",
"#####.....almmmlnnnnnnnlppka####",
"######....#almmmlllllllppka#####",
"############almmmpppppppka.#####",
"#############allllkkkkkka..#####",
"##############aqqaaarrra...#####",
"#############aqqqaarrrra..######",
"#############.aaa##aaaa#########",
".############..################.",
"..############################..",
"...###########################..",
"...###########################.."};
