/* XPM */
static char *dummy[]={
"32 32 20 1",
"e c #000000",
"b c #1e3c09",
"j c #325d14",
"l c #392b1c",
"# c #3d253b",
"d c #487e23",
". c #523b40",
"m c #5d4934",
"c c #609f36",
"o c #846b52",
"k c #937c65",
"r c #ab4818",
"f c #ae8021",
"p c #b7a089",
"q c #d25f27",
"i c #dba637",
"n c #decbb7",
"g c #fcc552",
"h c #ffe8b9",
"a c #ffffff",
"...###########################..",
"...###########################..",
"..################...##########.",
"#############aaaaaaa..##########",
"############abbbbbbba.##########",
"######...##abcccccccba##########",
"#####.....abcdddddddcba#########",
"####......abdddddddddba#########",
"####......abdeaddddddba#########",
"####.....#abdeedddfffffa########",
"#####...##abdccddfggghhfa##..###",
"##########abdddddfiiiiiifa...###",
"##########abjddddjffffffa#..####",
"#######aaa#abjddddjjbaaa########",
"######akkka#abaaaaaba###########",
"#####akaaakaalmmmmmla###########",
"####akannnakkooooomla###########",
"####aknnkknnnaaoooomla##########",
"####aknknnnnnnnaoooola##########",
".###aknlonnnnnnnoooola#########.",
".###akploonnnnnoooomla#########.",
"####akpplooooooolmmmla##########",
"#####akpplllllllmmmla#....######",
"######akpppppppmmmla#......#####",
"#######akkkkkklllla##......#####",
"########aqqqaaarra###......#####",
"########aqqqqaarrra###....######",
"#########aaaa..aaa##############",
".############..################.",
"..############################..",
"...###########################..",
"...###########################.."};
