/* XPM */
static char *dummy[]={
"32 32 494 2",
"bg c #1258bc",
"d8 c #1359bb",
"ae c #1359bc",
"#8 c #1459bc",
"aa c #145abb",
"#9 c #145abc",
"a# c #145abd",
"bh c #145bbd",
"ad c #145dc1",
"aI c #155abc",
"ak c #155abd",
"aH c #155bbc",
"a. c #155bbd",
"bW c #155bbe",
"cT c #155cbe",
"a7 c #155cbf",
"bi c #155cc0",
"bV c #155cc1",
"aw c #155dc0",
"a6 c #155dc1",
"au c #155dc2",
"av c #155dc3",
"ab c #155dc5",
"ac c #155ec8",
"aG c #165bbd",
"bL c #165bbe",
"d9 c #165bbf",
"cw c #165cbd",
"af c #165cbe",
"aV c #165cbf",
"c. c #165cc0",
"b. c #165cc1",
"a4 c #165dc0",
"aR c #165dc1",
"aT c #165dc2",
"c3 c #165ec2",
"b8 c #165ec3",
"b9 c #165ec4",
"dC c #165fc5",
"dD c #165fc6",
"bU c #165fc7",
"cG c #1660c8",
"ef c #175bc1",
"ec c #175cbe",
"#7 c #175cbf",
"#J c #175cc0",
"bo c #175dbe",
"cU c #175dc1",
"dN c #175ec0",
"cS c #175fc3",
"c# c #185cc1",
"dh c #185dbf",
"a3 c #185dc0",
"bZ c #185dc1",
"da c #185dc3",
"cx c #185ebf",
"bn c #185ec0",
"cJ c #185ec1",
"dW c #185fbf",
"a5 c #185fc4",
"bp c #195ec0",
"aj c #195ec1",
"b7 c #195ec2",
"c4 c #195ec5",
"dq c #195fc1",
"bJ c #195fc4",
"#M c #1960c2",
"bI c #1960c5",
"ee c #1960c7",
"en c #1961c0",
"a8 c #1961c5",
"cQ c #1962c7",
"co c #1a5ec1",
"ag c #1a5fc2",
"#K c #1a60c1",
"cH c #1a60c4",
"dB c #1a61c4",
"bK c #1a61c5",
"dL c #1a61c7",
"bX c #1a62c6",
"dM c #1a62c7",
"aE c #1b5fc3",
"dX c #1b60c2",
"at c #1b60c3",
"ah c #1b60c4",
"dY c #1b61c2",
"ds c #1b61c4",
"ed c #1b61c8",
"aU c #1b62c6",
"by c #1b62c7",
"a9 c #1b63c9",
"bY c #1b63ca",
"bH c #1c5fc4",
"eC c #1c60c5",
"dg c #1c61c1",
"ai c #1c61c4",
"aJ c #1c62c2",
"aW c #1c62c3",
"bq c #1c62c4",
"#G c #1c67c7",
"ax c #1d62c6",
"b# c #1d62c7",
"eb c #1d63c3",
"bz c #1d63c8",
"eB c #1d64c4",
"dZ c #1d64c8",
"cR c #1d64ca",
"#T c #1d65c3",
"#I c #1d65c5",
"#L c #1d66c6",
"#N c #1d67c6",
"#H c #1d67c7",
"#Q c #1d69ca",
"#S c #1e65c4",
"#R c #1e67c6",
"#P c #1e68c9",
"eo c #1e6ac3",
"#O c #1f64c6",
"al c #1f64c9",
"aF c #1f65c5",
"cI c #1f65c8",
"cV c #1f6dc9",
"d# c #2065c7",
"#F c #2067c8",
"dA c #2067cd",
"dr c #2167ce",
"em c #216ac6",
"d7 c #2265c9",
"cF c #2268cc",
"bM c #2269ca",
"aS c #2269cd",
"eq c #226dc6",
"ep c #226ec6",
"ez c #2367c8",
"#U c #2367c9",
"c2 c #2368cb",
"ex c #2369c9",
"eA c #236cc7",
"er c #236dc6",
"ey c #236dc7",
"#d c #2373ca",
"cK c #2375ca",
"dp c #2469c9",
"dE c #246fc6",
"cv c #256acd",
"#i c #2572c7",
"#6 c #2667cb",
"bf c #2672d0",
"c5 c #2677c9",
"#Y c #2772cc",
"dO c #2878c8",
"ci c #2879ca",
"db c #287cc8",
"di c #287cc9",
"d0 c #287dca",
"e. c #2971c9",
"es c #2971ca",
"ew c #2972ca",
"cp c #2975cb",
"b0 c #2976cc",
"cy c #2979cb",
"ca c #297cc9",
"eD c #297ccb",
"#e c #297dc6",
"#Z c #2a6fd1",
"a2 c #2a82cd",
"#V c #2b75cc",
"e1 c #2c76c8",
"bA c #2c79cf",
"df c #2c79d3",
"ch c #2c7ac9",
"b6 c #2c80c7",
"aK c #2d75d2",
"#j c #2d76c0",
"dz c #2d77cf",
"cn c #2d78cc",
"#E c #2d78d5",
"br c #2d7bcb",
"aX c #2d7cca",
"#W c #2d7ec5",
"#X c #2d7ec9",
"eM c #2d7fc0",
"dV c #2e7acc",
"bm c #2e7bd0",
"el c #2e7dd1",
"e# c #2e7fcb",
"d6 c #2e80d4",
"#5 c #2e86d1",
"#. c #2e89d3",
"e7 c #2f78c8",
"eL c #2f7bc8",
"aQ c #2f7fcb",
"d. c #2f82cc",
"#r c #2f86cd",
"#q c #2f8bc9",
"ea c #307ccc",
"bG c #3085ca",
"e8 c #3086c7",
"bT c #3088c7",
"do c #3089cd",
"ay c #317ac7",
"bx c #317bd0",
"as c #317fcd",
"#m c #3180d1",
"ba c #3181bf",
"#s c #3181d3",
"dK c #3187c9",
"aD c #3189c7",
"dF c #318ec4",
"e2 c #327fc9",
"e6 c #3282c7",
"bN c #3284c5",
"#c c #3285c3",
"cm c #3297be",
"e0 c #3381cb",
"#x c #3385ce",
"#0 c #338ac8",
"am c #3482be",
"#p c #3486c1",
"dU c #3493c0",
"eV c #3583c8",
"## c #3585be",
"#y c #3586c9",
"et c #3586ca",
"c1 c #358bbd",
"ev c #3591c2",
"cg c #3596b7",
"eR c #3686c7",
"#t c #368dc2",
"#l c #3781be",
"#f c #3784bb",
"eW c #3786cc",
"bw c #378bbd",
"cu c #378cb7",
"cq c #3791bf",
"#n c #3881bb",
"#w c #388abb",
"#k c #397fb5",
"#h c #3982b7",
"cP c #3989b2",
"#z c #398fb4",
"eu c #3998ae",
"#o c #3a80b5",
"#b c #3a81b7",
"eN c #3a88ae",
"b5 c #3a93ae",
"#a c #3b81b5",
"cE c #3b88b1",
"eK c #3b8bb7",
"e5 c #3b8cbb",
"eU c #3b8eac",
"eQ c #3b8eb8",
"e9 c #3b92ae",
"e3 c #3c8ab9",
"eZ c #3c8fb6",
"c9 c #3c90ab",
".i c #3d253b",
"#g c #3d7fb1",
"b1 c #3d8bb2",
"dP c #3d8cae",
"eX c #3d8cb5",
"ek c #3d8daa",
"aP c #3d8dad",
"ar c #3e8eab",
"eS c #3e90a6",
"dI c #3f283c",
"ap c #3f2d41",
"aB c #3f2e41",
"dy c #3f8ba8",
"aN c #402f42",
"dm c #403445",
"cW c #407b9e",
"#C c #413949",
"bd c #41394a",
"eJ c #4187aa",
"e4 c #418aad",
"ft c #418e9f",
"fI c #42283a",
"bQ c #422a3b",
"a0 c #423949",
"#3 c #423a4a",
".Y c #4286a5",
"dt c #4287a6",
".E c #4289a2",
"cz c #428aaa",
"bD c #432a3b",
"dw c #432f3f",
"ck c #433746",
"bk c #433847",
"eP c #4388a7",
"dS c #443544",
".S c #4485a1",
".J c #4486a6",
"eY c #4487a6",
"eO c #4487a7",
".X c #4488a0",
"eE c #448aa2",
".W c #449198",
".v c #453442",
"ce c #453543",
"aq c #455865",
"cj c #4587a3",
".K c #458a9d",
"#v c #458b9c",
"fj c #46747d",
"d5 c #46879a",
".3 c #46899b",
"fA c #468b98",
"bF c #478895",
"dG c #478a96",
"ei c #48303c",
"cs c #48323e",
"bu c #483440",
"dJ c #48434d",
"aO c #485f69",
"aL c #487da3",
"cL c #487f97",
"be c #488195",
"bB c #4881a0",
".9 c #488495",
"bS c #488893",
"eT c #497178",
".O c #49829c",
".4 c #498790",
"#u c #498a94",
"cC c #4a313b",
"b3 c #4a323c",
"d4 c #4a474f",
"#D c #4a8294",
"#A c #4a878f",
"fu c #4a8794",
"a1 c #4b818d",
"fn c #4b838b",
"#4 c #4b838f",
"eI c #4b848f",
"fk c #4b858d",
".Z c #4b858e",
"fo c #4b8590",
"cb c #4b8597",
"fe c #4b8691",
"fM c #4c323a",
".M c #4c6164",
"bs c #4c7f96",
"fy c #4c858e",
"aC c #4c878e",
"c6 c #4d7d8e",
"aY c #4d8093",
".5 c #4e6f71",
"fv c #4e7377",
"bl c #4e7e8b",
"fz c #4e838d",
"ff c #4e848b",
".I c #4e868a",
"fm c #4f676a",
"#1 c #4f8286",
".V c #4f8586",
".P c #507e8b",
"dj c #50808c",
"dl c #51373b",
"c7 c #51494a",
"bR c #514a4c",
"fl c #516869",
"fx c #517877",
"dn c #517f86",
"d1 c #517f8a",
"eg c #517f8c",
".B c #523b40",
".8 c #524a4e",
"cl c #528181",
".A c #534244",
"dx c #53605f",
"fs c #537b79",
"dc c #537e88",
"dQ c #53807d",
".F c #53827e",
".C c #54484a",
"bO c #547b80",
".D c #547d7f",
"fB c #547e7c",
"dd c #554645",
"bE c #554d4b",
"fD c #563e3f",
"fa c #563f40",
".6 c #566261",
"cr c #567b76",
".2 c #567e7a",
"Qt c #574544",
".0 c #575e59",
"az c #577683",
"c0 c #577a78",
"dT c #577b77",
"f. c #58746d",
".R c #58797a",
"#B c #587a75",
".L c #587e75",
"cO c #59413f",
"eh c #594e49",
"de c #595e58",
"fw c #59635b",
"cf c #597a74",
".T c #597b75",
"dH c #5a7870",
"fd c #5a7970",
"bC c #5a7971",
"aM c #5a7a70",
"bb c #5a7a76",
"fC c #5b534f",
".7 c #5b5f59",
"an c #5b7872",
"cZ c #5d534c",
"cX c #5d6458",
".N c #5d786c",
"dk c #5e5247",
"fR c #5e534c",
"fi c #5e5f52",
"eH c #5f695f",
"b2 c #5f7368",
"dR c #5f7369",
"fp c #5f7769",
"fN c #60493f",
".1 c #606357",
"bv c #607268",
"fg c #607362",
".t c #607465",
"bt c #607466",
".H c #607669",
"fh c #615c4e",
"fq c #615e51",
".o c #617363",
"aZ c #617364",
".f c #617365",
".Q c #617464",
".U c #617565",
".w c #624239",
"fr c #625a4b",
"cA c #627162",
"du c #627163",
".s c #627164",
".a c #627263",
".g c #627264",
".G c #627464",
".y c #637162",
"fK c #637163",
"fc c #646554",
"ej c #647060",
"d3 c #654c3d",
"c8 c #656f5f",
"ct c #656f60",
".k c #65705b",
".z c #666e5c",
"eF c #666f5c",
"fQ c #666f5d",
"fJ c #675747",
".u c #676e5b",
"cY c #685241",
"#2 c #686b58",
".# c #686c59",
"d2 c #695b44",
"fb c #695c49",
"b4 c #696b58",
".e c #6a6a56",
".l c #6a6b55",
"cc c #6b6952",
"cD c #6b6955",
".r c #6b6956",
"f# c #6c5842",
"fP c #6c6850",
"cM c #6d6950",
".b c #6e6650",
"fL c #6f654c",
"aA c #6f664b",
".x c #70644c",
"bP c #70654c",
"fF c #715b42",
"fH c #715c42",
".h c #716149",
".p c #716449",
"dv c #71644a",
".n c #726348",
"bc c #746043",
"bj c #746144",
".j c #755d41",
"cB c #755f42",
"eG c #755f43",
"fE c #756042",
"fG c #756043",
"ao c #765e3f",
"cN c #765e41",
"cd c #765f41",
"fO c #775e3e",
".d c #795b3c",
".m c #7a5b3b",
".q c #7a5b3c",
".c c #7c5938",
"Qt.#.a.b.c.d.e.f.g.h.i.j.k.l.m.n.o.p.q.r.s.f.t.u.v.w.x.y.z.A.B.B",
".C.D.E.F.G.H.I.J.K.L.M.N.O.P.Q.R.S.T.U.V.W.X.Y.Z.0.1.2.3.4.5.6.7",
".8.9#.###a#b#c#d#e#f#g#h#i#j#k#l#m#n#o#p#q#r#s#t#u#v#w#x#y#z#A#B",
"#C#D#E#F#G#H#I#J#K#L#H#H#J#M#G#N#O#P#Q#R#S#T#U#V#W#X#Y#U#Z#0#1#2",
"#3#4#5#6#7#8#9a.a##8#8#8a.a##8#8aaabacada#aeafagahaiajakalamanao",
"apaqarasata.a.a.a.a.a.a.#9a.a.a.a.auavawa.a.a.#9#9#9#9#9axayazaA",
".iaBaCaDaEa.a.a.a.a.a.a.aFaGa.a.a.aHaHa.a.a.a.a.a.aI#9#9aJaKaLaM",
"aNaOaPaQata.a.a.a.a.a.aRaSaTa.a.a.a.a.a.a.a.a.a.#9#MaUaVaWaXaYaZ",
"a0a1a2#Sa3a.a.a.a.a.a.a4a5a6a.a.a.a.a.a.a.a.a.a.a7a8a9b.b#babbbc",
"bdbebfbg#9a.bha.a.a.a.a.aIa.a.a.a.a.a.a.a.a.a.a.aVbia7a#b#babbbj",
"bkblbm#Ubnbobpa.a.a.a.a.a.a.a.a.a.a.a.a.a.a.a.a.a.a.a.#9bqbrbsbt",
"bubvbwbxaibybza.a.a.a.a.a.a.a.a.a.a.a.a.a.a.a.#9#9a.a.#9aWbAbBbC",
"bDbEbFbGbHbIbJa.a.a.a.a.a.a.a.a7a.a.a.a.a.a.#9#MbKa4a.bLbMbNbObP",
"bQbRbSbTaEaIaIa.a.a.a.a.a.a.a7bUbVa.a.a.a.a.bWbXbYaR#9bZb0b1b2ao",
"b3b4b5b6b7a.a.a.a.a.a.a.a.a.b8bUb9bWa.a.a.a.c.bibibW#9c#cacbcccd",
"cecfcgchaja.a.a.a.a.a.a.a.a.aRa4a4bWa.a.a.a.a.a.a.a.bhc#cicj.zcd",
"ckclcmcncoa.a.a.aHa.a.a.a.a.a.a.a.a.a.a.a.a.a.a.a.a.bhbZcpcqcrbc",
"csctcucvcwa.a.biaua.a.a.a.a.a.a.a.afcxaGa.a.a.a.a.a.bhbZcyczcAcB",
"cCcDcEcF#9a.a.b9cGbia.a.a.a.a.a.a.cHcIcJa.a.a.a.a.a.bh#JcKcLcMcN",
"cOb4cPcF#9a.a.aRa4aRa.a.a.a.a.a.aHcQcRcSbWa.a.a.a.cTa7cUcVcWcXcY",
"cZc0c1c2#9a.a.a.a.a.a.a.a.a.a.a.a.awbia.a.a.a.a.a7c3b9c4c5c6c7.B",
"c8c9d.d##9a.a.a.a.a.a.#9a.a.a.a.a.a.a.a.a.a.a.a.c.aRa6dadbdcdd.i",
"de.Edfdga.a.aIa.a.a.a.cHdha.a.a.a.a.a.a.a.a.a.a.a.a.bhc#didjdkdl",
"dmdndodpbWa.dqafa.a.a7drdsa.a.a.cTa7a.a.a.a.a.a.a.a.bh#Jc5dtdudv",
"dwdxdydzcJa4dAdBa.a.aTbia6a.a.a7dCdDbWa.a.a.a.a.a.a.a.aVdEdFdGdH",
"dIdJ.ZdKbHaTdLdMa.a.a.#9#9#9a.aRdCbUa7a.a.a.a.a.dNaVbhbZdOdPdQdR",
"dSdTdUdVajaH#9#9a.a.a#dWdXdYafaHaIaIa.a.a.a.a.bhdZa8#9c#d0d1d2d3",
"d4d5d6d7d8a#bWd9d9aVcxe.e#eaebafaVd9d9d9eca.afaTedeebWefdbegehei",
"ejekelemdqeneoepeqereseteuevewexeyepeperezagd#eAeqeyeBeCeDeEeFeG",
"eHeIeJeKeLeMeNeOePeQeReSeTeUeVeWeXePeYeZe0e1e2e3e4e5e6e7e8e9f.f#",
"fafbfcfdfefffgfhfifjfkfl.ifmfnfofpfqfrfsftfueIfvfwfxfyfzfAfBfC.B",
".B.BfDcBfEbcfF.i.i.ifG.i.i.ifHfEcBfI.ifJfKfLcdfM.ifNbcfOfPfQfR.B"};
