/* XPM */
static char *dummy[]={
"32 32 107 2",
".a c #000000",
"#j c #050101",
"#m c #080303",
".Y c #090606",
"#n c #230f0f",
"#k c #261010",
".S c #281d1d",
"#h c #2f1515",
".m c #321b1b",
".d c #322525",
"#D c #331717",
".X c #331d1d",
"#O c #341717",
"#l c #341818",
".1 c #342727",
".t c #371f1f",
".b c #372828",
".P c #381f1f",
".0 c #382929",
"#N c #391a1a",
".Z c #392727",
".R c #3a2020",
".E c #3c2020",
".c c #3c2c2c",
".9 c #3d2525",
".# c #3d253b",
".5 c #3d2a2a",
"Qt c #523b40",
".y c #633636",
".z c #643737",
"#I c #663030",
".p c #684545",
"#e c #693636",
"#r c #6b3838",
".8 c #6b4c4c",
".Q c #6c3d3d",
".l c #6c4646",
".g c #6c4c4c",
"#o c #843c3c",
".T c #8d6767",
"#E c #8e4141",
"#i c #904242",
".s c #975555",
".e c #976e6e",
".O c #985555",
".2 c #986f6f",
".3 c #9a7171",
"#M c #b55353",
"#L c #b75454",
"#p c #b85555",
"#A c #ba5a5a",
"#u c #bc5b5b",
"#y c #be6666",
".4 c #be8b8b",
"#b c #bf6b6b",
".M c #bf6c6c",
"#q c #bf8d8d",
".W c #c06b6b",
".N c #c16c6c",
".V c #c17474",
".U c #c28585",
".u c #c28e8e",
".D c #c46e6e",
"#. c #c47676",
".6 c #c48686",
".f c #c48f8f",
"#F c #c96161",
"#K c #cb6464",
"#f c #cc6363",
"#s c #cc6565",
".x c #ce7171",
".A c #cf7676",
".L c #d17575",
"#C c #d17979",
".o c #d18080",
"#z c #d18f8f",
".7 c #d29292",
"#v c #d47676",
".r c #d47878",
".k c #d48f8f",
".h c #d49292",
".j c #d59999",
".H c #ee8585",
"#G c #ef7c7c",
"#c c #ef8181",
"#B c #f19191",
"#w c #f38484",
".I c #f38a8a",
"#a c #f49a9a",
".K c #f78b8b",
".q c #f99494",
".n c #f99c9c",
".i c #f9adad",
"#J c #fc7b7b",
"#t c #ff7d7d",
"#g c #ff8585",
"#H c #ff8b8b",
"#x c #ff8d8d",
".J c #ff9393",
".B c #ff9696",
".C c #ff9898",
".G c #ff9e9e",
".w c #ffa3a3",
"## c #ffa4a4",
"#d c #ffacac",
".F c #ffb7b7",
".v c #ffb8b8",
"QtQtQt.#.#.#.#.#.#.#.#.#.#.#.#.#.#.#.#.#.#.#.#.#.#.#.#.#.#.#QtQt",
"QtQtQt.#.#.#.#.#.#.#.#.#.#.#.#.#.#.#.#.#.#.#.#.#.#.#.#.#.#.#QtQt",
"QtQt.#.#.#.#.#.#.#.#.#.#.#.#.#.#.#.#QtQtQt.#.a.a.a.a.a.a.#.#.#Qt",
".#.#.#.#.#.#.#.#.#.#.#.#.#.#.#.#.#QtQtQtQtQt.b.c.c.c.c.b.#.#.#.#",
".#.#.#.#.#.#.#.#.#.#.#.#.#.#.#.#.#QtQtQt.a.d.e.f.f.f.f.e.d.a.#.#",
".#.#.#.#.#.#QtQtQt.#.#.#.#.#.#.#.#QtQtQt.d.g.h.i.j.j.i.k.l.m.#.#",
".#.#.#.#.#QtQtQtQtQt.#.#.#.#.#.#.#Qt.a.b.e.h.n.o.p.p.o.q.r.s.t.a",
".#.#.#.#QtQtQtQtQtQt.#.#.#.#.#.#.#.#.a.c.u.v.w.x.y.z.A.B.C.D.E.a",
".#.#.#.#QtQtQtQtQtQt.#.#.#.#.#.#.#.#.a.c.u.F.G.H.x.x.I.B.C.D.E.a",
".#.#.#.#QtQtQtQtQt.#.#.#.#.#.#.#.#.#.a.c.u.F.G.J.B.K.L.M.N.O.P.a",
".#.#.#.#.#QtQtQt.#.#.#.#.#.#.#.#.#.#.a.c.u.v.w.B.B.r.Q.P.R.P.#.#",
".#.#.#.#.#.#.#.#.#.#.#.#.#.#.#.#.#.#.a.S.T.U.V.W.N.O.X.a.a.a.#.#",
".#.#.a.a.a.a.a.a.#.#.#.#.#.#.#.#.#.#.a.Y.S.Z.R.P.P.XQtQt.#.#.#.#",
".#.#.0.c.c.c.c.b.#.#.#.#.#.#.#.#.#.#.0.c.0.b.b.0.0.1.#.#.#.#.#.#",
".a.0.2.u.u.u.u.e.d.a.#.#.#.#.#.#.a.0.3.f.u.4.4.u.u.2.0.a.#.#.#.#",
".a.5.6.v.v.F.v.7.8.d.#.#.#.#.#.#.a.5.6.v.v.F.F.v.v.6.5.a.#.#.#.#",
".a.9#.##.w.w.G#a.7.e.d.a.#.#.#.#.a.9#.##.w.w.w.w###..9.a.#.#.#.#",
".a.P.O.N#b.x#c.B#d.7.8.d.#.#.#.#.a.P.O.D.N#b#b.N.D.O.P.a.#.#.#.#",
".#.#.P.R.P#e#f#g.B#a.7.e.b.a.#.#.#.#.R.E.R.P.P.R.E.R.#.#.#.#.#.#",
"Qt.#.a.a.a#h#i#f#c.G.v.u.c.a.#.#.#.#.a#j#k#l#l#k#m.a.#.#.#.#.#Qt",
"Qt.#.#.#.#Qt#h#e.x.w.F.u.c.a.#.#.#.#.a#n#o#p#p#o#k.a.#.#.#.#.#Qt",
".#.#.#.#.#Qt.a.P#b.w.F#q.0.a.#.#.#.#.X#r#s#t#t#u.P.a.#.#.#.#.#.#",
".#.#.#.#.#.#.a.R#b.w.F#q.0.a.a.a.a.X.O#v#w#x#x#y.E.a.#.#.#.#.#.#",
".#.#.#.#.#.#.a.E#y.C#d#z.l.R.R.R.R.Q.r.B.B.B.B.N.E.aQt.#.#.#.#.#",
".#.#.#.#.#.#.a.P#A#g.B#B#C.N.M.M#b.A.I.J.J.B.B.N.E.aQt.#.#.#.#.#",
".#.#.#.#.#.#.a#D#E#F#G#H#x#x#x#x#x#x#H#H#H#w.L.s.t.aQt.#.#.#.#.#",
".#.#.#.#.#.#.#.##h#I#F#t#t#t#t#t#t#t#J#t#t#K#e.XQtQt.#.#.#.#.#.#",
".#.#.#.#.#.#.#.#.a#h#E#p#L#M#M#M#M#M#M#L#p#E#h.a.#.#.#.#.#.#.#.#",
"Qt.#.#.#.#.#.#.#.#.##l#N#N#N#N#N#N#N#N#N#N#O.#.#.#.#.#.#.#.#.#Qt",
"QtQt.#.#.#.#.#.#.#.#.a.a.a.a.a.a.a.a.a.a.a.a.#.#.#.#.#.#.#.#QtQt",
"QtQtQt.#.#.#.#.#.#.#.#.#.#.#.#.#.#.#.#.#.#.#.#.#.#.#.#.#.#.#QtQt",
"QtQtQt.#.#.#.#.#.#.#.#.#.#.#.#.#.#.#.#.#.#.#.#.#.#.#.#.#.#.#QtQt"};
